<svg id="SvgjsSvg1006" width="538" height="592" xmlns="http://www.w3.org/2000/svg" version="1.1" xmlns:xlink="http://www.w3.org/1999/xlink" xmlns:svgjs="http://svgjs.com/svgjs"><defs id="SvgjsDefs1007"><marker id="SvgjsMarker1028" markerWidth="16" markerHeight="12" refX="16" refY="6" viewBox="0 0 16 12" orient="auto" markerUnits="userSpaceOnUse"><path id="SvgjsPath1029" d="M0,2 L14,6 L0,11 L0,2" fill="#323232" stroke="#323232" stroke-width="2"></path></marker><marker id="SvgjsMarker1036" markerWidth="16" markerHeight="12" refX="16" refY="6" viewBox="0 0 16 12" orient="auto" markerUnits="userSpaceOnUse"><path id="SvgjsPath1037" d="M0,2 L14,6 L0,11 L0,2" fill="#323232" stroke="#323232" stroke-width="2"></path></marker><marker id="SvgjsMarker1052" markerWidth="16" markerHeight="12" refX="16" refY="6" viewBox="0 0 16 12" orient="auto" markerUnits="userSpaceOnUse"><path id="SvgjsPath1053" d="M0,2 L14,6 L0,11 L0,2" fill="#323232" stroke="#323232" stroke-width="2"></path></marker><marker id="SvgjsMarker1068" markerWidth="16" markerHeight="12" refX="16" refY="6" viewBox="0 0 16 12" orient="auto" markerUnits="userSpaceOnUse"><path id="SvgjsPath1069" d="M0,2 L14,6 L0,11 L0,2" fill="#323232" stroke="#323232" stroke-width="2"></path></marker><marker id="SvgjsMarker1078" markerWidth="16" markerHeight="12" refX="0" refY="6" viewBox="0 0 16 12" orient="auto" markerUnits="userSpaceOnUse"><path id="SvgjsPath1079" d="M15,1.5 L2,6 L15,10.5" fill="#323232" stroke="#323232" stroke-width="2"></path></marker><marker id="SvgjsMarker1080" markerWidth="16" markerHeight="12" refX="16" refY="6" viewBox="0 0 16 12" orient="auto" markerUnits="userSpaceOnUse"><path id="SvgjsPath1081" d="M0,2 L14,6 L0,11 L0,2" fill="#323232" stroke="#323232" stroke-width="2"></path></marker></defs><g id="SvgjsG1008" transform="translate(25,25)"><path id="SvgjsPath1009" d="M 48 30L 48 542" stroke-dasharray="3,4" stroke="#323232" stroke-width="2" fill="none"></path><path id="SvgjsPath1010" d="M 0 0L 96 0L 96 30L 0 30Z" stroke="#323232" stroke-width="2" fill-opacity="1" fill="#ffffff"></path><g id="SvgjsG1011"><text id="SvgjsText1012" font-family="Arial" text-anchor="middle" font-size="13px" width="33" fill="#323232" font-weight="400" align="middle" anchor="middle" family="Arial" size="13px" weight="400" font-style="" y="5.05" transform="rotate(0)"><tspan id="SvgjsTspan1013" dy="16" x="48"><tspan id="SvgjsTspan1014" style="text-decoration:;">Client</tspan></tspan></text></g></g><g id="SvgjsG1015" transform="translate(417,25)"><path id="SvgjsPath1016" d="M 48 30L 48 542" stroke-dasharray="3,4" stroke="#323232" stroke-width="2" fill="none"></path><path id="SvgjsPath1017" d="M 0 0L 96 0L 96 30L 0 30Z" stroke="#323232" stroke-width="2" fill-opacity="1" fill="#ffffff"></path><g id="SvgjsG1018"><text id="SvgjsText1019" font-family="Arial" text-anchor="middle" font-size="13px" width="38" fill="#323232" font-weight="400" align="middle" anchor="middle" family="Arial" size="13px" weight="400" font-style="" y="5.05" transform="rotate(0)"><tspan id="SvgjsTspan1020" dy="16" x="48"><tspan id="SvgjsTspan1021" style="text-decoration:;">Server</tspan></tspan></text></g></g><g id="SvgjsG1022" transform="translate(58,97)"><path id="SvgjsPath1023" d="M 0 4Q 0 0 4 0L 26 0Q 30 0 30 4L 30 443Q 30 447 26 447L 4 447Q 0 447 0 443L 0 4Z" stroke="#323232" stroke-width="2" fill-opacity="1" fill="#ffffff"></path></g><g id="SvgjsG1024" transform="translate(450,93)"><path id="SvgjsPath1025" d="M 0 4Q 0 0 4 0L 26 0Q 30 0 30 4L 30 443Q 30 447 26 447L 4 447Q 0 447 0 443L 0 4Z" stroke="#323232" stroke-width="2" fill-opacity="1" fill="#ffffff"></path></g><g id="SvgjsG1026"><path id="SvgjsPath1027" d="M88 132L450 131" stroke="#323232" stroke-width="2" fill="none" marker-end="url(#SvgjsMarker1028)"></path><rect id="SvgjsRect1030" width="63" height="16" x="237.5" y="123.5" fill="#ffffff"></rect><text id="SvgjsText1031" font-family="Arial" text-anchor="middle" font-size="13px" width="63" fill="#323232" font-weight="400" align="top" anchor="middle" family="Arial" size="13px" weight="400" font-style="" y="121.55" transform="rotate(0)"><tspan id="SvgjsTspan1032" dy="16" x="269"><tspan id="SvgjsTspan1033" style="text-decoration:;">ClientHello</tspan></tspan></text></g><g id="SvgjsG1034"><path id="SvgjsPath1035" d="M450 201L86 203" stroke="#323232" stroke-width="2" fill="none" marker-end="url(#SvgjsMarker1036)"></path><rect id="SvgjsRect1038" width="126" height="80" x="205" y="162" fill="#ffffff"></rect><text id="SvgjsText1039" font-family="Arial" text-anchor="middle" font-size="13px" width="126" fill="#323232" font-weight="400" align="top" anchor="middle" family="Arial" size="13px" weight="400" font-style="" y="160.05" transform="rotate(0)"><tspan id="SvgjsTspan1040" dy="16" x="268"><tspan id="SvgjsTspan1041" style="text-decoration:;">ServerHello</tspan></tspan><tspan id="SvgjsTspan1042" dy="16" x="268"><tspan id="SvgjsTspan1043" style="text-decoration:;">Certificate</tspan></tspan><tspan id="SvgjsTspan1044" dy="16" x="268"><tspan id="SvgjsTspan1045" style="text-decoration:;">[ServerKeyExchange]</tspan></tspan><tspan id="SvgjsTspan1046" dy="16" x="268"><tspan id="SvgjsTspan1047" style="text-decoration:;">[CertificateRequest]</tspan></tspan><tspan id="SvgjsTspan1048" dy="16" x="268"><tspan id="SvgjsTspan1049" style="text-decoration:;">ServerHelloDone</tspan></tspan></text></g><g id="SvgjsG1050"><path id="SvgjsPath1051" d="M88 320.5L450 316.5" stroke="#323232" stroke-width="2" fill="none" marker-end="url(#SvgjsMarker1052)"></path><rect id="SvgjsRect1054" width="113" height="80" x="212.5" y="278.5" fill="#ffffff"></rect><text id="SvgjsText1055" font-family="Arial" text-anchor="middle" font-size="13px" width="113" fill="#323232" font-weight="400" align="top" anchor="middle" family="Arial" size="13px" weight="400" font-style="" y="276.55" transform="rotate(0)"><tspan id="SvgjsTspan1056" dy="16" x="269"><tspan id="SvgjsTspan1057" style="text-decoration:;">[ClientCertificatee]</tspan></tspan><tspan id="SvgjsTspan1058" dy="16" x="269"><tspan id="SvgjsTspan1059" style="text-decoration:;">CientKeyExchange</tspan></tspan><tspan id="SvgjsTspan1060" dy="16" x="269"><tspan id="SvgjsTspan1061" style="text-decoration:;">[CertificateVerify]</tspan></tspan><tspan id="SvgjsTspan1062" dy="16" x="269"><tspan id="SvgjsTspan1063" style="text-decoration:;">ChangeCipherSpec</tspan></tspan><tspan id="SvgjsTspan1064" dy="16" x="269"><tspan id="SvgjsTspan1065" style="text-decoration:;">Finished</tspan></tspan></text></g><g id="SvgjsG1066"><path id="SvgjsPath1067" d="M450 401L88 401" stroke="#323232" stroke-width="2" fill="none" marker-end="url(#SvgjsMarker1068)"></path><rect id="SvgjsRect1070" width="113" height="32" x="212.5" y="385" fill="#ffffff"></rect><text id="SvgjsText1071" font-family="Arial" text-anchor="middle" font-size="13px" width="113" fill="#323232" font-weight="400" align="top" anchor="middle" family="Arial" size="13px" weight="400" font-style="" y="383.05" transform="rotate(0)"><tspan id="SvgjsTspan1072" dy="16" x="269"><tspan id="SvgjsTspan1073" style="text-decoration:;">ChangeCipherSpec</tspan></tspan><tspan id="SvgjsTspan1074" dy="16" x="269"><tspan id="SvgjsTspan1075" style="text-decoration:;">Finished</tspan></tspan></text></g><g id="SvgjsG1076"><path id="SvgjsPath1077" d="M86 469L450 468" stroke-dasharray="8,5" stroke="#323232" stroke-width="2" fill="none" marker-start="url(#SvgjsMarker1078)" marker-end="url(#SvgjsMarker1080)"></path><rect id="SvgjsRect1082" width="95" height="16" x="220.5" y="460.5" fill="#ffffff"></rect><text id="SvgjsText1083" font-family="Arial" text-anchor="middle" font-size="13px" width="95" fill="#323232" font-weight="400" align="top" anchor="middle" family="Arial" size="13px" weight="400" font-style="" y="458.55" transform="rotate(0)"><tspan id="SvgjsTspan1084" dy="16" x="268"><tspan id="SvgjsTspan1085" style="text-decoration:;">Application Data</tspan></tspan></text></g></svg>